# xmcd
#
# Track frame offsets: 
#        150
#        20040
#        42402
#        64200
#        85607
#        118160
#        139860
#        164227
#        186177
#        203485
#        224665
#        246167
#
# Disc length: 3528 seconds
#
# Revision: 2
# Processed by: cddbd v1.5.2PL0 Copyright (c) Steve Scherf et al.
# Submitted via: ExactAudioCopy v0.99pb5
#
DISCID=b90dc60c
DTITLE=Andre Gagnon - Andre Gagnon's Love Me Tender Disc 2
DYEAR=2004
DGENRE=New Age
TTITLE0=My Funny Valentine
TTITLE1=Smoke Gets In Your Eyes
TTITLE2=Tammy
TTITLE3=Twilight Time
TTITLE4=When I Fall In Love
TTITLE5=As Time Goes By
TTITLE6=Love Me Tender
TTITLE7=Body And Soul
TTITLE8=The Way You Look Tonight
TTITLE9=Non Dimentica
TTITLE10=Embranceable You
TTITLE11=True Love
EXTD=YEAR: 2003
EXTT0=
EXTT1=
EXTT2=
EXTT3=
EXTT4=
EXTT5=
EXTT6=
EXTT7=
EXTT8=
EXTT9=
EXTT10=
EXTT11=
PLAYORDER=
